<svg width="23" height="23" viewBox="0 0 23 23" fill="none" xmlns="http://www.w3.org/2000/svg">
<g clip-path="url(#clip0_1670_10245)">
<path d="M20.5068 10.0354L19.9371 7.75655C20.0928 7.72346 20.2097 7.58527 20.2097 7.41971V7.05229C20.2097 6.25453 19.5607 5.60553 18.7629 5.60553H16.168V4.84765C16.168 4.45509 15.8486 4.13574 15.4561 4.13574H2.22848C1.83592 4.13574 1.51658 4.45509 1.51658 4.84765V11.094C1.51658 11.2842 1.67079 11.4385 1.86106 11.4385C2.05128 11.4385 2.20554 11.2843 2.20554 11.094V4.84765C2.20554 4.83497 2.21581 4.8247 2.22848 4.8247H15.456C15.4687 4.8247 15.479 4.83497 15.479 4.84765V11.0941C15.479 11.2843 15.6332 11.4386 15.8235 11.4386C16.0137 11.4386 16.1679 11.2844 16.1679 11.0941V10.7036H20.2314C20.2318 10.7036 20.232 10.7037 20.2323 10.7037C20.2327 10.7037 20.233 10.7036 20.2333 10.7036C20.7333 10.704 21.1579 11.0322 21.3037 11.4844H20.2326C20.0424 11.4844 19.8881 11.6386 19.8881 11.8289V12.5638C19.8881 13.1589 20.3723 13.6431 20.9675 13.6431H21.3579V15.1587H20.4572C20.1613 14.3044 19.3491 13.689 18.3954 13.689C17.4417 13.689 16.6295 14.3044 16.3337 15.1587H16.1678V12.5637C16.1678 12.3735 16.0136 12.2192 15.8234 12.2192C15.6331 12.2192 15.4789 12.3735 15.4789 12.5637V15.1586H8.33198C8.0361 14.3043 7.22395 13.6889 6.27025 13.6889C5.31656 13.6889 4.50437 14.3043 4.20853 15.1586H2.22848C2.21581 15.1586 2.20554 15.1484 2.20554 15.1357V14.3779H3.69823C3.88845 14.3779 4.04271 14.2236 4.04271 14.0334C4.04271 13.8431 3.8885 13.6889 3.69823 13.6889H0.391355C0.201133 13.6889 0.046875 13.8431 0.046875 14.0334C0.046875 14.2236 0.20109 14.3779 0.391355 14.3779H1.51662V15.1357C1.51662 15.5283 1.83596 15.8476 2.22853 15.8476H4.08925C4.08916 15.8553 4.08864 15.8629 4.08864 15.8706C4.08864 17.0735 5.06734 18.0522 6.27025 18.0522C7.47316 18.0522 8.45186 17.0735 8.45186 15.8706C8.45186 15.8628 8.45135 15.8553 8.45126 15.8476H16.2144C16.2143 15.8553 16.2138 15.8629 16.2138 15.8706C16.2138 17.0735 17.1925 18.0522 18.3954 18.0522C19.5983 18.0522 20.577 17.0735 20.577 15.8706C20.577 15.8628 20.5765 15.8553 20.5764 15.8476H21.7024C21.8926 15.8476 22.0468 15.6934 22.0468 15.5031V11.8288C22.0469 10.9217 21.3776 10.168 20.5068 10.0354ZM16.168 6.29445H18.7629C19.1808 6.29445 19.5208 6.63442 19.5208 7.05229V7.07523H16.168V6.29445ZM16.168 10.0147V7.76415H19.2289L19.7915 10.0147H16.168ZM6.27025 17.3633C5.44719 17.3633 4.77756 16.6937 4.77756 15.8706C4.77756 15.0475 5.44719 14.3779 6.27025 14.3779C7.09332 14.3779 7.76295 15.0475 7.76295 15.8706C7.76295 16.6937 7.09332 17.3633 6.27025 17.3633ZM18.3955 17.3633C17.5725 17.3633 16.9028 16.6937 16.9028 15.8706C16.9028 15.0475 17.5725 14.3779 18.3955 14.3779C19.2186 14.3779 19.8882 15.0475 19.8882 15.8706C19.8882 16.6937 19.2186 17.3633 18.3955 17.3633ZM21.358 12.9541H20.9675C20.7523 12.9541 20.5771 12.779 20.5771 12.5637V12.1733H21.3579V12.9541H21.358Z" fill="#F50002"/>
<path d="M6.2705 15.1582C5.87794 15.1582 5.55859 15.4775 5.55859 15.8701C5.55859 16.2627 5.87794 16.582 6.2705 16.582C6.66306 16.582 6.98241 16.2627 6.98241 15.8701C6.98241 15.4775 6.66306 15.1582 6.2705 15.1582Z" fill="#F50002"/>
<path d="M18.3955 15.1582C18.0029 15.1582 17.6836 15.4775 17.6836 15.8701C17.6836 16.2627 18.0029 16.582 18.3955 16.582C18.7881 16.582 19.1074 16.2627 19.1074 15.8701C19.1074 15.4775 18.7881 15.1582 18.3955 15.1582Z" fill="#F50002"/>
<path d="M14.3538 13.6885H9.20971C9.01949 13.6885 8.86523 13.8427 8.86523 14.033C8.86523 14.2232 9.01945 14.3774 9.20971 14.3774H14.3538C14.544 14.3774 14.6982 14.2232 14.6982 14.033C14.6982 13.8427 14.544 13.6885 14.3538 13.6885Z" fill="#F50002"/>
<path d="M5.53493 12.2188H1.12573C0.935508 12.2188 0.78125 12.373 0.78125 12.5632C0.78125 12.7535 0.935465 12.9077 1.12573 12.9077H5.53493C5.72515 12.9077 5.87941 12.7535 5.87941 12.5632C5.87941 12.373 5.72515 12.2188 5.53493 12.2188Z" fill="#F50002"/>
<path d="M12.0251 7.54325C11.8906 7.40875 11.6724 7.40875 11.5379 7.54329L8.47459 10.6066L6.88101 9.01299C6.74647 8.87846 6.52836 8.87846 6.39387 9.01299C6.25933 9.14753 6.25933 9.36559 6.39387 9.50013L8.23104 11.3373C8.29829 11.4046 8.38646 11.4382 8.47459 11.4382C8.56272 11.4382 8.65093 11.4046 8.71814 11.3373L12.025 8.03043C12.1595 7.89585 12.1595 7.67778 12.0251 7.54325Z" fill="#F50002"/>
</g>
<defs>
<clipPath id="clip0_1670_10245">
<rect width="22" height="22" fill="white" transform="translate(0.046875 0.09375)"/>
</clipPath>
</defs>
</svg>
