<svg width="23" height="23" viewBox="0 0 23 23" fill="none" xmlns="http://www.w3.org/2000/svg">
<g clip-path="url(#clip0_1670_10293)">
<path d="M21.0849 10.0354L20.5152 7.75655C20.671 7.72346 20.7878 7.58527 20.7878 7.41971V7.05229C20.7878 6.25453 20.1388 5.60553 19.3411 5.60553H16.7461V4.84765C16.7461 4.45509 16.4268 4.13574 16.0342 4.13574H2.80661C2.41405 4.13574 2.0947 4.45509 2.0947 4.84765V11.094C2.0947 11.2842 2.24892 11.4385 2.43918 11.4385C2.62941 11.4385 2.78366 11.2843 2.78366 11.094V4.84765C2.78366 4.83497 2.79393 4.8247 2.80661 4.8247H16.0342C16.0468 4.8247 16.0571 4.83497 16.0571 4.84765V11.0941C16.0571 11.2843 16.2113 11.4386 16.4016 11.4386C16.5918 11.4386 16.7461 11.2844 16.7461 11.0941V10.7036H20.8096C20.8099 10.7036 20.8102 10.7037 20.8105 10.7037C20.8108 10.7037 20.8111 10.7036 20.8114 10.7036C21.3114 10.704 21.736 11.0322 21.8819 11.4844H20.8107C20.6205 11.4844 20.4663 11.6386 20.4663 11.8289V12.5638C20.4663 13.1589 20.9504 13.6431 21.5456 13.6431H21.936V15.1587H21.0353C20.7394 14.3044 19.9272 13.689 18.9736 13.689C18.0199 13.689 17.2077 14.3044 16.9118 15.1587H16.746V12.5637C16.746 12.3735 16.5918 12.2192 16.4015 12.2192C16.2113 12.2192 16.057 12.3735 16.057 12.5637V15.1586H8.91011C8.61422 14.3043 7.80207 13.6889 6.84838 13.6889C5.89469 13.6889 5.08249 14.3043 4.78665 15.1586H2.80661C2.79393 15.1586 2.78366 15.1484 2.78366 15.1357V14.3779H4.27636C4.46658 14.3779 4.62084 14.2236 4.62084 14.0334C4.62084 13.8431 4.46662 13.6889 4.27636 13.6889H0.96948C0.779258 13.6889 0.625 13.8431 0.625 14.0334C0.625 14.2236 0.779215 14.3779 0.96948 14.3779H2.09475V15.1357C2.09475 15.5283 2.41409 15.8476 2.80665 15.8476H4.66737C4.66729 15.8553 4.66677 15.8629 4.66677 15.8706C4.66677 17.0735 5.64547 18.0522 6.84838 18.0522C8.05129 18.0522 9.02999 17.0735 9.02999 15.8706C9.02999 15.8628 9.02947 15.8553 9.02939 15.8476H16.7926C16.7925 15.8553 16.7919 15.8629 16.7919 15.8706C16.7919 17.0735 17.7706 18.0522 18.9736 18.0522C20.1765 18.0522 21.1552 17.0735 21.1552 15.8706C21.1552 15.8628 21.1547 15.8553 21.1546 15.8476H22.2805C22.4707 15.8476 22.625 15.6934 22.625 15.5031V11.8288C22.625 10.9217 21.9557 10.168 21.0849 10.0354ZM16.7461 6.29445H19.3411C19.7589 6.29445 20.0989 6.63442 20.0989 7.05229V7.07523H16.7461V6.29445ZM16.7461 10.0147V7.76415H19.807L20.3696 10.0147H16.7461ZM6.84838 17.3633C6.02531 17.3633 5.35569 16.6937 5.35569 15.8706C5.35569 15.0475 6.02531 14.3779 6.84838 14.3779C7.67145 14.3779 8.34107 15.0475 8.34107 15.8706C8.34107 16.6937 7.67145 17.3633 6.84838 17.3633ZM18.9736 17.3633C18.1506 17.3633 17.481 16.6937 17.481 15.8706C17.481 15.0475 18.1506 14.3779 18.9736 14.3779C19.7967 14.3779 20.4663 15.0475 20.4663 15.8706C20.4663 16.6937 19.7967 17.3633 18.9736 17.3633ZM21.9361 12.9541H21.5457C21.3304 12.9541 21.1553 12.779 21.1553 12.5637V12.1733H21.936V12.9541H21.9361Z" fill="white"/>
<path d="M6.84863 15.1582C6.45606 15.1582 6.13672 15.4775 6.13672 15.8701C6.13672 16.2627 6.45606 16.582 6.84863 16.582C7.24119 16.582 7.56053 16.2627 7.56053 15.8701C7.56053 15.4775 7.24119 15.1582 6.84863 15.1582Z" fill="white"/>
<path d="M18.9736 15.1582C18.5811 15.1582 18.2617 15.4775 18.2617 15.8701C18.2617 16.2627 18.5811 16.582 18.9736 16.582C19.3662 16.582 19.6855 16.2627 19.6855 15.8701C19.6855 15.4775 19.3662 15.1582 18.9736 15.1582Z" fill="white"/>
<path d="M14.9319 13.6885H9.78784C9.59762 13.6885 9.44336 13.8427 9.44336 14.033C9.44336 14.2232 9.59757 14.3774 9.78784 14.3774H14.9319C15.1221 14.3774 15.2764 14.2232 15.2764 14.033C15.2764 13.8427 15.1222 13.6885 14.9319 13.6885Z" fill="white"/>
<path d="M6.11305 12.2188H1.70386C1.51363 12.2188 1.35938 12.373 1.35938 12.5632C1.35938 12.7535 1.51359 12.9077 1.70386 12.9077H6.11305C6.30327 12.9077 6.45753 12.7535 6.45753 12.5632C6.45753 12.373 6.30327 12.2188 6.11305 12.2188Z" fill="white"/>
<path d="M12.6032 7.54325C12.4687 7.40875 12.2505 7.40875 12.116 7.54329L9.05271 10.6066L7.45913 9.01299C7.3246 8.87846 7.10649 8.87846 6.972 9.01299C6.83746 9.14753 6.83746 9.36559 6.972 9.50013L8.80917 11.3373C8.87641 11.4046 8.96458 11.4382 9.05271 11.4382C9.14084 11.4382 9.22906 11.4046 9.29626 11.3373L12.6031 8.03043C12.7377 7.89585 12.7377 7.67778 12.6032 7.54325Z" fill="white"/>
</g>
<defs>
<clipPath id="clip0_1670_10293">
<rect width="22" height="22" fill="white" transform="translate(0.625 0.09375)"/>
</clipPath>
</defs>
</svg>
