<svg width="68" height="68" viewBox="0 0 68 68" fill="none" xmlns="http://www.w3.org/2000/svg">
<g clip-path="url(#clip0_1525_242)">
<path d="M49.1484 34.3438C49.1484 27.8086 44.9648 22.0117 38.7578 19.9609C38.457 19.8789 38.1563 20.0156 38.0742 20.3164C37.9922 20.5899 38.1289 20.918 38.4297 21C44.1992 22.9141 48.0547 28.2734 48.0547 34.3438C48.0547 41.5899 42.4766 47.6328 35.3945 48.3164L36.7344 46.9766C36.9531 46.7578 36.9531 46.4297 36.7344 46.2109C36.5156 45.9922 36.1875 45.9922 35.9687 46.2109L33.6172 48.5625C33.3984 48.7813 33.3984 49.1094 33.6172 49.3281L35.9687 51.6797C36.0781 51.7891 36.2148 51.8438 36.3516 51.8438C36.4883 51.8438 36.625 51.7891 36.7344 51.6797C36.9531 51.4609 36.9531 51.1328 36.7344 50.9141L35.2578 49.4375C43.0234 48.7813 49.1484 42.2461 49.1484 34.3438V34.3438Z" fill="#FFDB46"/>
<path d="M34.3828 19.3594L32.0312 17.0078C31.8125 16.7891 31.4844 16.7891 31.2656 17.0078C31.0469 17.2266 31.0469 17.5547 31.2656 17.7734L32.7422 19.25C29.1328 19.5508 25.7695 21.1094 23.1992 23.7344C20.3828 26.5781 18.8516 30.3516 18.8516 34.3438C18.8516 40.8789 23.0078 46.6484 29.2148 48.7266C29.2695 48.7539 29.3242 48.7539 29.3789 48.7539C29.5977 48.7539 29.8164 48.6172 29.8984 48.3711C29.9805 48.0977 29.8437 47.7695 29.543 47.6875C23.8008 45.7734 19.918 40.4141 19.918 34.3438C19.918 27.125 25.4961 21.082 32.5781 20.3711L31.2656 21.7109C31.0469 21.9297 31.0469 22.2578 31.2656 22.4766C31.375 22.5859 31.5117 22.6406 31.6484 22.6406C31.7852 22.6406 31.9219 22.5859 32.0312 22.4766L34.3828 20.125C34.6016 19.9062 34.6016 19.5781 34.3828 19.3594V19.3594Z" fill="#FFDB46"/>
<path d="M41.6562 38.6914V34.1797C41.6562 32.9492 40.6992 31.9375 39.4688 31.8828V29.4219C39.4688 26.4141 37.0078 23.9531 34 23.9531C30.9922 23.9531 28.5312 26.4141 28.5312 29.4219V31.8828C27.3008 31.9375 26.3438 32.9492 26.3438 34.1797V38.6914C26.3438 41.125 28.3125 43.0938 30.7461 43.0938H37.2812C39.6875 43.0938 41.6562 41.125 41.6562 38.6914ZM34 25.0469C36.4063 25.0469 38.375 27.0156 38.375 29.4219V31.8828H29.625V29.4219C29.625 27.0156 31.5937 25.0469 34 25.0469ZM27.4375 38.6914V34.1797C27.4375 33.5234 27.9844 32.9766 28.6406 32.9766H39.3594C40.0156 32.9766 40.5625 33.5234 40.5625 34.1797V38.6914C40.5625 40.5234 39.0859 42 37.2539 42H30.7461C28.9141 42 27.4375 40.5234 27.4375 38.6914V38.6914Z" fill="#FFDB46"/>
<path d="M34 34.207C32.9609 34.207 32.1406 35.0547 32.1406 36.0664C32.1406 36.8867 32.6602 37.5977 33.4531 37.8438V39.4844C33.4531 39.7852 33.6992 40.0313 34 40.0313C34.3008 40.0313 34.5469 39.7852 34.5469 39.4844V37.8438C35.5312 37.543 36.0781 36.5039 35.7773 35.5195C35.5312 34.7266 34.8203 34.207 34 34.207ZM34 36.832C33.5898 36.832 33.2344 36.5039 33.2344 36.0664C33.2344 35.6289 33.5625 35.3008 34 35.3008C34.4102 35.3008 34.7656 35.6289 34.7656 36.0664C34.7656 36.4766 34.4102 36.832 34 36.832Z" fill="#FFDB46"/>
</g>
<rect x="1" y="1.34375" width="66" height="66" rx="33" stroke="#FFDB46" stroke-dasharray="3 2"/>
<defs>
<clipPath id="clip0_1525_242">
<rect width="35" height="35" fill="white" transform="translate(16.5 16.8438)"/>
</clipPath>
</defs>
</svg>
