<svg width="68" height="68" viewBox="0 0 68 68" fill="none" xmlns="http://www.w3.org/2000/svg">
<g clip-path="url(#clip0_1525_253)">
<path d="M51.3646 26.3871L45.5313 19.3872C45.4205 19.2548 45.2566 19.1779 45.0833 19.1779H22.9169C22.7437 19.1779 22.5798 19.2543 22.4689 19.3872L16.6357 26.3871C16.4904 26.561 16.4589 26.803 16.5552 27.0078C16.6514 27.2125 16.8573 27.3438 17.0836 27.3438H50.9165C51.1428 27.3438 51.3487 27.2125 51.445 27.0078C51.5407 26.8037 51.5098 26.5615 51.3646 26.3871ZM18.3291 26.1771L23.19 20.3439H44.8097L49.6706 26.1771H18.3291Z" fill="#FFDB46"/>
<path d="M34.5397 19.5372C34.4493 19.319 34.2364 19.1772 34.0007 19.1772H22.9176C22.7087 19.1772 22.5162 19.2887 22.4118 19.4701C22.3075 19.6515 22.308 19.8738 22.4136 20.0546L26.4969 27.0545C26.5879 27.2102 26.746 27.3158 26.9256 27.3391C26.9507 27.342 26.9758 27.3438 27.0003 27.3438C27.1543 27.3438 27.303 27.2831 27.4133 27.1729L34.4132 20.173C34.58 20.0062 34.6302 19.7553 34.5397 19.5372ZM27.1228 25.8131L23.9325 20.3439H32.592L27.1228 25.8131Z" fill="#FFDB46"/>
<path d="M51.4385 26.5014C51.3404 26.3025 51.1375 26.1765 50.9158 26.1765H17.0829C16.8612 26.1765 16.6588 26.3025 16.5603 26.5014C16.4622 26.7003 16.485 26.9378 16.6197 27.1139L33.5362 49.2803C33.6465 49.4249 33.818 49.5101 33.9999 49.5101C34.1819 49.5101 34.3534 49.4249 34.4625 49.2803L51.379 27.1139C51.5137 26.9378 51.5364 26.7003 51.4385 26.5014ZM33.9999 47.9655L18.2624 27.3438H49.7375L33.9999 47.9655Z" fill="#FFDB46"/>
<path d="M34.5559 48.7507L27.556 26.5843C27.479 26.3416 27.2544 26.1765 26.9995 26.1765H17.0829C16.8612 26.1765 16.6588 26.3025 16.5603 26.5014C16.4622 26.7003 16.485 26.9378 16.6197 27.1139L33.5362 49.2803C33.6493 49.429 33.8226 49.5101 33.9999 49.5101C34.0909 49.5101 34.1831 49.4891 34.2682 49.4436C34.5197 49.3136 34.641 49.0207 34.5559 48.7507ZM18.2618 27.3438H26.5719L32.4378 45.9193L18.2618 27.3438Z" fill="#FFDB46"/>
<path d="M45.5884 19.4701C45.4846 19.2887 45.2915 19.1772 45.0827 19.1772H33.9995C33.7638 19.1772 33.5509 19.319 33.4605 19.5372C33.37 19.7553 33.4202 20.0062 33.5871 20.173L40.587 27.1729C40.6966 27.2831 40.8454 27.3438 40.9994 27.3438C41.0245 27.3438 41.0496 27.342 41.0746 27.3391C41.2537 27.3158 41.4124 27.2108 41.5034 27.0545L45.5866 20.0546C45.6916 19.8738 45.6923 19.6515 45.5884 19.4701ZM40.8769 25.8131L35.4076 20.3439H44.067L40.8769 25.8131Z" fill="#FFDB46"/>
<path d="M51.4407 26.5026C51.3426 26.3037 51.1397 26.1777 50.918 26.1777H41.0014C40.7465 26.1777 40.5214 26.3428 40.4449 26.5855L33.445 48.7519C33.3599 49.0213 33.4812 49.3142 33.7326 49.4449C33.8178 49.4892 33.9099 49.5102 34.0009 49.5102C34.1777 49.5102 34.3509 49.4292 34.4647 49.2816L51.3811 27.1152C51.5159 26.9389 51.5386 26.7015 51.4407 26.5026ZM35.5626 45.9192L41.4285 27.3437H49.7385L35.5626 45.9192Z" fill="#FFDB46"/>
</g>
<rect x="1" y="1.34375" width="66" height="66" rx="33" stroke="#FFDB46" stroke-dasharray="3 2"/>
<defs>
<clipPath id="clip0_1525_253">
<rect width="35" height="35" fill="white" transform="translate(16.5 16.8438)"/>
</clipPath>
</defs>
</svg>
