<svg width="68" height="68" viewBox="0 0 68 68" fill="none" xmlns="http://www.w3.org/2000/svg">
<g clip-path="url(#clip0_1525_277)">
<path d="M28.971 30.6429C26.7802 34.3641 28.5783 37.3421 29.1787 38.1656C28.4444 39.5164 27.8787 41.0014 27.681 42.5618C27.636 42.9171 27.8879 43.2418 28.2433 43.2868C28.271 43.2906 28.2983 43.2921 28.3256 43.2921C28.6475 43.2921 28.9271 43.0525 28.9687 42.7248C29.6698 37.1864 35.7848 32.401 35.8464 32.3533C36.1298 32.1341 36.1821 31.7264 35.9633 31.4429C35.7441 31.1595 35.3368 31.1064 35.0533 31.3256C34.8752 31.4629 32.0341 33.6848 29.9137 36.936C29.3479 35.9656 28.5668 33.8879 30.0894 31.3014C31.0375 29.6898 32.5141 29.4337 34.2241 29.1368C35.4791 28.9195 36.8698 28.6779 38.1198 27.8337C38.521 29.7533 39.1356 34.0514 37.2956 36.5814C36.3779 37.8433 34.9206 38.5148 32.9641 38.5768C32.606 38.5879 32.3244 38.8871 32.336 39.2452C32.3471 39.5968 32.6352 39.8741 32.9844 39.8741H33.0052C35.3848 39.7991 37.1818 38.9471 38.3475 37.3425C41.1291 33.5125 39.2164 26.7806 39.1337 26.4956C39.0694 26.2764 38.8948 26.106 38.6737 26.0487C38.4514 25.9918 38.2168 26.0545 38.0541 26.216C36.9025 27.3552 35.4941 27.5998 34.0021 27.8583C32.1448 28.1802 30.2241 28.5133 28.971 30.6429V30.6429Z" fill="#FFDB46"/>
<path d="M28.3442 47.081C28.4269 47.1164 28.5135 47.1329 28.5981 47.1329C28.8504 47.1329 29.0904 46.9848 29.1958 46.7379C29.3362 46.4083 29.1827 46.0272 28.8527 45.8868C23.7381 43.7075 20.7023 38.5264 21.2981 32.9929C21.9796 26.6641 27.2792 21.9341 33.4815 21.7918L31.8788 23.0825C31.5996 23.3075 31.5558 23.716 31.7804 23.9952C31.9085 24.1545 32.0965 24.2372 32.2862 24.2372C32.4292 24.2372 32.5731 24.1902 32.6931 24.0937L35.6435 21.7175C35.7777 21.6095 35.8631 21.4529 35.8815 21.2814C35.9 21.1098 35.8496 20.9387 35.7419 20.8048L33.3654 17.8548C33.1408 17.5756 32.7323 17.5318 32.4527 17.7564C32.1735 17.9814 32.1296 18.3898 32.3546 18.6691L33.8188 20.4868C26.8181 20.4598 20.7731 25.7456 20.0077 32.8537C19.35 38.9591 22.7004 44.6764 28.3442 47.081V47.081Z" fill="#FFDB46"/>
<path d="M38.5821 22.7372C43.6948 24.8514 46.8514 30.1745 46.2587 35.6826C45.5764 42.0106 40.2744 46.7372 34.0748 46.8822L35.6771 45.5922C35.9564 45.3668 36.0002 44.9591 35.7756 44.6795C35.5506 44.3999 35.1425 44.3564 34.8629 44.581L31.9121 46.9572C31.7779 47.0653 31.6921 47.2218 31.6737 47.393C31.6552 47.5641 31.7056 47.7356 31.8137 47.8699L34.1906 50.8199C34.319 50.9791 34.5067 51.0618 34.696 51.0618C34.839 51.0618 34.9829 51.0145 35.1033 50.9183C35.3825 50.693 35.4264 50.2845 35.2014 50.0056L33.736 48.1868C33.7533 48.1868 33.7706 48.1883 33.7879 48.1883C40.7648 48.1876 46.7848 42.9118 47.549 35.8214C48.2029 29.7445 44.7198 23.8706 39.0783 21.5376C38.7475 21.4014 38.3671 21.5583 38.2306 21.8895C38.0937 22.2206 38.251 22.5999 38.5821 22.7372V22.7372Z" fill="#FFDB46"/>
</g>
<rect x="1" y="1.34375" width="66" height="66" rx="33" stroke="#FFDB46" stroke-dasharray="3 2"/>
<defs>
<clipPath id="clip0_1525_277">
<rect width="35" height="35" fill="white" transform="translate(16.5 16.8438)"/>
</clipPath>
</defs>
</svg>
