<svg width="68" height="68" viewBox="0 0 68 68" fill="none" xmlns="http://www.w3.org/2000/svg">
<g clip-path="url(#clip0_1525_287)">
<path d="M48.8253 47.7183C50.957 47.4611 52.1738 45.0691 51.0372 43.1749L41.8862 27.9086L51.1997 18.5951C51.6001 18.1947 51.6001 17.5455 51.1997 17.1451C50.7993 16.7446 50.1501 16.7446 49.7496 17.1451L40.7993 26.0954L36.5716 19.0427C35.399 17.0883 32.5702 17.0924 31.3997 19.0431L27.1836 26.0766L18.2522 17.1451C17.8518 16.7446 17.2026 16.7446 16.8021 17.1451C16.4017 17.5455 16.4017 18.1947 16.8021 18.5951L26.0968 27.8898L16.9345 43.1749C15.7937 45.0767 17.0239 47.481 19.1738 47.721L16.8022 50.0925C16.4017 50.493 16.4017 51.1421 16.8022 51.5425C17.2026 51.943 17.8518 51.943 18.2522 51.5425L22.0532 47.7416H45.9485L49.7495 51.5425C50.1499 51.943 50.7991 51.943 51.1995 51.5425C51.6 51.1421 51.6 50.493 51.1995 50.0925L48.8253 47.7183ZM33.1585 20.0978C33.5333 19.473 34.4384 19.4731 34.8131 20.0974L39.3045 27.5902L34.0009 32.8938L28.6785 27.5714L33.1585 20.0978ZM21.2038 45.6909H19.5205C18.7704 45.6909 18.3066 44.8736 18.6931 44.2295C18.6931 44.2295 18.6932 44.2293 18.6933 44.2292L27.5916 29.3847L32.5508 34.3439L21.2038 45.6909ZM24.1039 45.6909L34.0009 35.7939L43.8979 45.6909H24.1039ZM46.798 45.6909L35.451 34.3439L40.3914 29.4034L49.2787 44.2295C49.6646 44.8727 49.2024 45.6909 48.4513 45.6909H46.798V45.6909Z" fill="#FFDB46"/>
</g>
<rect x="1" y="1.34375" width="66" height="66" rx="33" stroke="#FFDB46" stroke-dasharray="3 2"/>
<defs>
<clipPath id="clip0_1525_287">
<rect width="35" height="35" fill="white" transform="translate(16.5 16.8438)"/>
</clipPath>
</defs>
</svg>
