<svg width="1245" height="663" viewBox="0 0 1245 663" fill="none" xmlns="http://www.w3.org/2000/svg">
<path d="M38.5693 660.374C35.3847 662.296 31.277 663.637 27.6147 661.89C18.7879 657.68 19.8864 646.643 15.2895 639.028C11.3618 632.52 0.393492 627.402 0.375031 619.265C0.363493 614.451 3.585 610.694 7.24496 608.486C12.2526 605.463 18.6241 606.432 25.0994 609.619C27.7163 610.906 33.9516 610.32 39.34 611.029C44.733 611.739 49.3622 613.95 51.356 617.255C54.1183 621.829 53.8114 626.478 52.0553 630.741C49.9991 635.728 46.1546 640.191 45.9076 643.509C45.3792 650.566 44.4053 656.852 38.5693 660.374Z" fill="#6AC5A0"/>
<path d="M42.4271 595.297C46.9399 588.648 46.8019 580.682 42.1188 577.503C37.4357 574.324 29.9809 577.137 25.4681 583.786C20.9553 590.435 21.0933 598.402 25.7764 601.58C30.4595 604.759 37.9142 601.946 42.4271 595.297Z" fill="#6AC5A0"/>
<path d="M67.6902 604.226C74.7563 598.924 77.6667 590.87 74.1907 586.238C70.7148 581.607 62.1688 582.15 55.1028 587.453C48.0368 592.756 45.1264 600.809 48.6023 605.441C52.0782 610.073 60.6242 609.529 67.6902 604.226Z" fill="#6AC5A0"/>
<path d="M68.8427 655.68C76.8285 654.784 82.7907 649.498 82.1596 643.873C81.5285 638.248 74.5431 634.415 66.5573 635.311C58.5715 636.207 52.6093 641.493 53.2403 647.118C53.8714 652.743 60.8569 656.576 68.8427 655.68Z" fill="#6AC5A0"/>
<path d="M79.4209 627.681C87.4049 623.898 91.8669 616.588 89.3871 611.355C86.9072 606.121 78.4246 604.945 70.4406 608.728C62.4567 612.511 57.9947 619.821 60.4745 625.054C62.9543 630.288 71.4369 631.464 79.4209 627.681Z" fill="#6AC5A0"/>
<path d="M3.2133 466.317C1.57947 469.656 0.605631 473.868 2.66638 477.361C7.63479 485.784 18.5339 483.719 26.5231 487.631C33.3491 490.972 39.4137 501.449 47.5205 500.752C52.3159 500.339 55.7774 496.801 57.6558 492.964C60.2266 487.711 58.7012 481.448 54.9581 475.278C53.4466 472.785 53.4812 466.522 52.302 461.215C51.1205 455.905 48.5105 451.488 45.0444 449.792C40.2445 447.443 35.6406 448.156 31.5492 450.281C26.763 452.766 22.6554 456.989 19.3693 457.527C12.384 458.674 6.20865 460.195 3.2133 466.317Z" fill="#6AC5A0"/>
<path d="M80.6603 472.652C86.8872 467.572 89.0347 459.899 85.4571 455.513C81.8794 451.127 73.9312 451.69 67.7044 456.769C61.4775 461.848 59.33 469.521 62.9077 473.907C66.4854 478.293 74.4335 477.731 80.6603 472.652Z" fill="#6AC5A0"/>
<path d="M74.3846 443.4C79.0458 435.895 78.8363 427.334 73.9166 424.279C68.9969 421.223 61.23 424.83 56.5688 432.336C51.9076 439.841 52.1171 448.402 57.0368 451.457C61.9565 454.513 69.7233 450.906 74.3846 443.4Z" fill="#6AC5A0"/>
<path d="M25.749 436.227C25.9402 428.194 21.5083 421.572 15.8499 421.438C10.1916 421.303 5.44964 427.706 5.2584 435.739C5.06715 443.772 9.49906 450.394 15.1574 450.529C20.8157 450.663 25.5577 444.26 25.749 436.227Z" fill="#6AC5A0"/>
<path d="M51.8431 430.043C54.9097 421.758 52.9929 413.412 47.5618 411.402C42.1307 409.392 35.2421 414.479 32.1755 422.764C29.109 431.049 31.0258 439.395 36.4568 441.405C41.8879 443.415 48.7766 438.329 51.8431 430.043Z" fill="#6AC5A0"/>
<path d="M168.06 521.046C164.533 522.23 160.232 522.643 157.038 520.141C149.34 514.114 152.813 503.577 149.984 495.145C147.565 487.94 137.974 480.555 139.726 472.608C140.762 467.907 144.724 464.942 148.777 463.583C154.322 461.723 160.329 464.056 165.957 468.574C168.23 470.399 174.445 471.184 179.549 473.051C184.659 474.918 188.695 478.084 189.922 481.742C191.623 486.807 190.312 491.279 187.67 495.057C184.578 499.476 179.854 502.995 178.889 506.182C176.84 512.955 174.523 518.877 168.06 521.046Z" fill="#6AC5A0"/>
<path d="M186.021 458.349C191.872 452.842 193.471 445.036 189.592 440.914C185.712 436.792 177.824 437.916 171.972 443.424C166.121 448.931 164.522 456.737 168.401 460.859C172.281 464.98 180.169 463.857 186.021 458.349Z" fill="#6AC5A0"/>
<path d="M208.743 472.605C216.795 468.967 221.388 461.739 219.003 456.462C216.618 451.184 208.158 449.855 200.107 453.493C192.056 457.131 187.463 464.359 189.847 469.636C192.232 474.914 200.692 476.243 208.743 472.605Z" fill="#6AC5A0"/>
<path d="M214.211 514.392C214.819 508.765 208.836 503.503 200.847 502.64C192.857 501.777 185.888 505.639 185.28 511.267C184.672 516.894 190.656 522.155 198.645 523.018C206.634 523.881 213.603 520.019 214.211 514.392Z" fill="#6AC5A0"/>
<path d="M214.991 498.03C223.607 496.075 229.553 489.913 228.272 484.265C226.99 478.618 218.968 475.623 210.352 477.578C201.736 479.532 195.79 485.695 197.071 491.342C198.352 496.99 206.375 499.984 214.991 498.03Z" fill="#6AC5A0"/>
<path d="M175.784 323.945C173.463 326.851 171.596 330.746 172.847 334.607C175.863 343.909 186.949 344.267 193.897 349.821C199.832 354.568 203.472 366.113 211.537 367.198C216.307 367.84 220.454 365.137 223.124 361.8C226.777 357.234 226.65 350.788 224.338 343.951C223.403 341.188 224.801 335.085 224.806 329.648C224.808 324.209 223.221 319.33 220.209 316.919C216.037 313.582 211.387 313.275 206.931 314.459C201.718 315.843 196.789 319.069 193.468 318.882C186.399 318.481 180.042 318.622 175.784 323.945Z" fill="#6AC5A0"/>
<path d="M250.003 346.993C257.186 343.391 260.953 336.369 258.415 331.309C255.878 326.25 247.998 325.069 240.815 328.671C233.632 332.274 229.866 339.295 232.403 344.355C234.94 349.414 242.82 350.596 250.003 346.993Z" fill="#6AC5A0"/>
<path d="M250.212 317.06C256.395 310.749 258.053 302.348 253.916 298.295C249.78 294.243 241.414 296.073 235.232 302.384C229.049 308.694 227.391 317.095 231.527 321.148C235.664 325.201 244.029 323.371 250.212 317.06Z" fill="#6AC5A0"/>
<path d="M204.355 299.472C206.29 291.672 203.405 284.245 197.911 282.882C192.418 281.519 186.396 286.737 184.461 294.536C182.526 302.336 185.41 309.763 190.904 311.126C196.398 312.489 202.42 307.271 204.355 299.472Z" fill="#6AC5A0"/>
<path d="M231.158 299.138C235.955 291.719 235.9 283.155 231.037 280.011C226.173 276.867 218.342 280.333 213.546 287.752C208.75 295.172 208.804 303.735 213.668 306.879C218.531 310.023 226.362 306.558 231.158 299.138Z" fill="#6AC5A0"/>
<path d="M318.293 409.202C314.576 409.11 310.392 408.032 308.243 404.589C303.065 396.296 309.928 387.579 310.147 378.686C310.334 371.089 303.84 360.873 308.2 354.003C310.78 349.939 315.515 348.504 319.789 348.61C325.636 348.753 330.487 352.999 334.232 359.168C335.746 361.66 341.317 364.519 345.48 368.015C349.645 371.514 352.357 375.868 352.262 379.726C352.131 385.069 349.373 388.823 345.6 391.473C341.185 394.572 335.543 396.266 333.549 398.931C329.31 404.594 325.11 409.368 318.293 409.202Z" fill="#6AC5A0"/>
<path d="M356.555 356.379C363.935 353.2 368.102 346.409 365.863 341.211C363.624 336.013 355.826 334.376 348.447 337.555C341.067 340.734 336.899 347.525 339.138 352.723C341.377 357.921 349.175 359.558 356.555 356.379Z" fill="#6AC5A0"/>
<path d="M373.038 377.554C381.847 376.883 388.632 371.659 388.193 365.884C387.753 360.11 380.256 355.972 371.446 356.643C362.637 357.313 355.852 362.538 356.292 368.313C356.732 374.087 364.229 378.225 373.038 377.554Z" fill="#6AC5A0"/>
<path d="M363.957 418.721C366.45 413.639 362.622 406.651 355.408 403.112C348.194 399.573 340.324 400.824 337.832 405.905C335.339 410.987 339.167 417.975 346.381 421.514C353.596 425.053 361.465 423.803 363.957 418.721Z" fill="#6AC5A0"/>
<path d="M387.512 395.175C388.236 389.429 381.716 383.876 372.951 382.771C364.185 381.667 356.492 385.43 355.768 391.176C355.044 396.922 361.563 402.475 370.329 403.58C379.095 404.684 386.788 400.921 387.512 395.175Z" fill="#6AC5A0"/>
<path d="M392.845 226.58C389.67 228.516 386.585 231.542 386.444 235.596C386.102 245.367 396.401 249.491 401.035 257.085C404.993 263.572 404.471 275.667 411.683 279.44C415.947 281.671 420.768 280.547 424.417 278.323C429.408 275.277 431.49 269.178 431.651 261.962C431.716 259.047 435.115 253.785 436.973 248.676C438.833 243.565 439.006 238.437 436.996 235.142C434.213 230.582 429.946 228.706 425.356 228.295C419.984 227.817 414.249 229.167 411.191 227.854C404.688 225.069 398.665 223.031 392.845 226.58Z" fill="#6AC5A0"/>
<path d="M454.727 273.56C462.708 272.626 468.645 267.312 467.987 261.691C467.329 256.069 460.326 252.269 452.345 253.203C444.364 254.137 438.428 259.451 439.085 265.072C439.743 270.694 446.746 274.494 454.727 273.56Z" fill="#6AC5A0"/>
<path d="M465.164 245.587C473.131 241.767 477.559 234.437 475.055 229.215C472.55 223.993 464.062 222.857 456.096 226.677C448.13 230.497 443.702 237.827 446.206 243.049C448.71 248.271 457.198 249.407 465.164 245.587Z" fill="#6AC5A0"/>
<path d="M428.07 213.31C432.552 206.64 432.376 198.673 427.677 195.517C422.979 192.36 415.537 195.209 411.056 201.879C406.574 208.55 406.75 216.516 411.449 219.673C416.147 222.829 423.589 219.981 428.07 213.31Z" fill="#6AC5A0"/>
<path d="M453.372 222.166C460.413 216.83 463.285 208.762 459.788 204.147C456.29 199.531 447.746 200.115 440.705 205.451C433.663 210.787 430.791 218.855 434.289 223.471C437.787 228.086 446.33 227.502 453.372 222.166Z" fill="#6AC5A0"/>
<path d="M491.555 370.249C488.022 369.09 484.325 366.85 483.261 362.936C480.693 353.502 489.776 347.133 492.549 338.68C494.919 331.459 491.645 319.806 497.799 314.482C501.441 311.334 506.391 311.325 510.45 312.656C516.007 314.479 519.429 319.942 521.238 326.929C521.97 329.752 526.481 334.095 529.458 338.643C532.437 343.194 533.78 348.146 532.578 351.813C530.912 356.89 527.19 359.691 522.812 361.141C517.691 362.834 511.8 362.832 509.123 364.81C503.43 369.012 498.032 372.374 491.555 370.249Z" fill="#6AC5A0"/>
<path d="M543.433 330.736C551.416 329.819 557.364 324.517 556.719 318.894C556.073 313.271 549.077 309.456 541.094 310.373C533.11 311.289 527.162 316.591 527.808 322.214C528.454 327.838 535.449 331.653 543.433 330.736Z" fill="#6AC5A0"/>
<path d="M571.011 348.921C572.255 343.264 566.267 337.141 557.638 335.245C549.01 333.348 541.006 336.395 539.763 342.052C538.52 347.708 544.507 353.831 553.136 355.728C561.765 357.625 569.768 354.577 571.011 348.921Z" fill="#6AC5A0"/>
<path d="M532.508 392.482C536.359 388.334 534.708 380.54 528.819 375.072C522.93 369.605 515.035 368.535 511.184 372.682C507.333 376.83 508.985 384.625 514.873 390.092C520.762 395.56 528.657 396.629 532.508 392.482Z" fill="#6AC5A0"/>
<path d="M561.808 376.788C564.157 371.495 559.515 364.299 551.44 360.715C543.365 357.132 534.915 358.518 532.566 363.811C530.217 369.105 534.859 376.3 542.934 379.884C551.009 383.467 559.459 382.081 561.808 376.788Z" fill="#6AC5A0"/>
<path d="M615.574 216.863C611.976 217.802 608.15 219.809 606.846 223.652C603.703 232.91 612.378 239.826 614.625 248.434C616.545 255.788 612.562 267.218 618.378 272.909C621.818 276.273 626.759 276.59 630.892 275.51C636.551 274.03 640.303 268.79 642.537 261.927C643.439 259.155 648.209 255.096 651.463 250.739C654.716 246.38 656.362 241.52 655.386 237.786C654.036 232.617 650.491 229.592 646.213 227.877C641.205 225.872 635.325 225.512 632.775 223.375C627.35 218.826 622.169 215.139 615.574 216.863Z" fill="#6AC5A0"/>
<path d="M677.405 272.099C678.395 266.526 672.784 260.869 664.872 259.464C656.96 258.058 649.743 261.437 648.753 267.01C647.763 272.582 653.375 278.239 661.287 279.645C669.199 281.05 676.415 277.672 677.405 272.099Z" fill="#6AC5A0"/>
<path d="M679.312 255.881C688.041 254.518 694.393 248.776 693.5 243.054C692.607 237.332 684.807 233.798 676.078 235.16C667.35 236.523 660.997 242.265 661.89 247.987C662.783 253.709 670.583 257.243 679.312 255.881Z" fill="#6AC5A0"/>
<path d="M653.063 214.316C659.276 209.221 661.404 201.543 657.815 197.166C654.226 192.79 646.28 193.373 640.066 198.468C633.853 203.564 631.726 211.242 635.315 215.618C638.904 219.995 646.85 219.412 653.063 214.316Z" fill="#6AC5A0"/>
<path d="M674.77 230.043C683.05 226.962 688.125 220.065 686.106 214.637C684.086 209.21 675.737 207.307 667.457 210.388C659.177 213.468 654.102 220.366 656.121 225.793C658.141 231.221 666.49 233.123 674.77 230.043Z" fill="#6AC5A0"/>
<path d="M724.469 381.921C720.763 381.607 716.65 380.28 714.712 376.717C710.039 368.128 717.407 359.837 718.157 350.973C718.796 343.399 712.923 332.814 717.686 326.216C720.504 322.314 725.318 321.162 729.575 321.522C735.402 322.014 739.992 326.541 743.364 332.922C744.725 335.5 750.118 338.687 754.064 342.425C758.013 346.166 760.461 350.675 760.136 354.52C759.686 359.843 756.709 363.43 752.786 365.848C748.194 368.677 742.462 370.034 740.313 372.575C735.739 377.979 731.262 382.496 724.469 381.921Z" fill="#6AC5A0"/>
<path d="M765.824 331.512C773.38 328.779 777.946 322.248 776.021 316.926C774.096 311.603 766.409 309.504 758.853 312.237C751.296 314.97 746.73 321.5 748.655 326.823C750.58 332.145 758.267 334.245 765.824 331.512Z" fill="#6AC5A0"/>
<path d="M781.036 353.63C789.87 353.486 796.955 348.675 796.86 342.884C796.766 337.093 789.528 332.516 780.694 332.66C771.861 332.804 764.776 337.615 764.87 343.405C764.965 349.196 772.202 353.774 781.036 353.63Z" fill="#6AC5A0"/>
<path d="M769.474 394.069C772.265 389.145 768.86 381.941 761.869 377.978C754.878 374.016 746.948 374.795 744.157 379.72C741.366 384.644 744.771 391.848 751.762 395.81C758.753 399.773 766.683 398.993 769.474 394.069Z" fill="#6AC5A0"/>
<path d="M794.32 372.083C795.385 366.39 789.209 360.459 780.525 358.834C771.842 357.21 763.939 360.507 762.874 366.199C761.809 371.891 767.985 377.823 776.669 379.448C785.352 381.072 793.255 377.775 794.32 372.083Z" fill="#6AC5A0"/>
<path d="M809.776 204.071C806.493 205.816 803.232 208.652 802.849 212.69C801.926 222.424 811.959 227.153 816.134 235.01C819.699 241.723 818.458 253.765 825.429 257.96C829.553 260.441 834.431 259.608 838.207 257.605C843.371 254.861 845.813 248.895 846.406 241.702C846.646 238.797 850.352 233.748 852.512 228.759C854.672 223.767 855.152 218.658 853.343 215.252C850.837 210.533 846.69 208.405 842.132 207.724C836.797 206.926 830.993 207.932 828.018 206.441C821.689 203.266 815.797 200.873 809.776 204.071Z" fill="#6AC5A0"/>
<path d="M868.789 254.649C876.811 254.193 883.054 249.242 882.733 243.591C882.411 237.94 875.647 233.729 867.624 234.185C859.601 234.642 853.358 239.593 853.68 245.244C854.001 250.895 860.766 255.106 868.789 254.649Z" fill="#6AC5A0"/>
<path d="M880.786 227.304C888.965 223.966 893.822 216.913 891.633 211.551C889.444 206.19 881.04 204.55 872.861 207.888C864.681 211.227 859.825 218.28 862.013 223.642C864.202 229.003 872.607 230.643 880.786 227.304Z" fill="#6AC5A0"/>
<path d="M845.713 192.969C850.584 186.579 850.884 178.616 846.383 175.185C841.881 171.754 834.283 174.153 829.412 180.544C824.541 186.935 824.241 194.897 828.742 198.328C833.244 201.759 840.842 199.36 845.713 192.969Z" fill="#6AC5A0"/>
<path d="M870.464 203.272C877.811 198.365 881.16 190.483 877.943 185.667C874.727 180.851 866.164 180.924 858.817 185.831C851.47 190.738 848.121 198.62 851.338 203.436C854.554 208.252 863.117 208.178 870.464 203.272Z" fill="#6AC5A0"/>
<path d="M940.23 335.826C936.538 336.262 932.244 335.786 929.629 332.685C923.327 325.208 928.884 315.608 927.841 306.772C926.95 299.224 919.071 290.032 922.413 282.613C924.391 278.224 928.874 276.131 933.118 275.63C938.927 274.945 944.329 278.457 948.912 284.032C950.763 286.285 956.684 288.325 961.302 291.195C965.919 294.068 969.224 297.994 969.676 301.827C970.304 307.132 968.105 311.242 964.747 314.399C960.817 318.093 955.473 320.57 953.876 323.491C950.481 329.703 947.001 335.027 940.23 335.826Z" fill="#6AC5A0"/>
<path d="M970.66 278.172C977.516 273.979 980.679 266.665 977.725 261.837C974.772 257.008 966.82 256.493 959.965 260.686C953.11 264.879 949.947 272.193 952.9 277.021C955.854 281.85 963.805 282.365 970.66 278.172Z" fill="#6AC5A0"/>
<path d="M989.959 296.789C998.584 294.876 1004.56 288.742 1003.31 283.088C1002.05 277.434 994.044 274.401 985.418 276.314C976.793 278.226 970.817 284.36 972.071 290.014C973.325 295.668 981.333 298.701 989.959 296.789Z" fill="#6AC5A0"/>
<path d="M986.756 338.729C988.503 333.345 983.723 326.97 976.079 324.491C968.436 322.011 960.823 324.365 959.077 329.749C957.33 335.133 962.11 341.507 969.754 343.987C977.397 346.467 985.01 344.113 986.756 338.729Z" fill="#6AC5A0"/>
<path d="M990.987 322.88C999.82 322.729 1006.9 317.913 1006.8 312.123C1006.7 306.332 999.464 301.76 990.63 301.91C981.796 302.06 974.715 306.876 974.813 312.667C974.911 318.457 982.153 323.03 990.987 322.88Z" fill="#6AC5A0"/>
<path d="M988.133 144.48C985.265 146.848 982.641 150.279 983.075 154.313C984.122 164.035 994.901 166.654 1000.57 173.515C1005.41 179.377 1006.6 191.423 1014.28 194.134C1018.82 195.738 1023.43 193.943 1026.72 191.222C1031.23 187.5 1032.43 181.165 1031.56 174C1031.21 171.106 1033.83 165.415 1034.95 160.096C1036.07 154.772 1035.51 149.672 1033.05 146.695C1029.65 142.576 1025.16 141.323 1020.56 141.57C1015.17 141.859 1009.69 144.009 1006.48 143.144C999.641 141.302 993.39 140.139 988.133 144.48Z" fill="#6AC5A0"/>
<path d="M1056.07 182.188C1063.84 180.132 1068.96 174.029 1067.51 168.558C1066.06 163.086 1058.59 160.318 1050.83 162.374C1043.06 164.43 1037.93 170.533 1039.38 176.004C1040.83 181.476 1048.3 184.244 1056.07 182.188Z" fill="#6AC5A0"/>
<path d="M1062.36 153.024C1069.7 148.113 1073.05 140.229 1069.83 135.416C1066.61 130.602 1058.05 130.681 1050.7 135.592C1043.36 140.503 1040.02 148.387 1043.24 153.201C1046.45 158.015 1055.02 157.935 1062.36 153.024Z" fill="#6AC5A0"/>
<path d="M1021.07 126.3C1024.56 119.061 1023.25 111.2 1018.15 108.742C1013.05 106.284 1006.09 110.159 1002.6 117.398C999.112 124.636 1000.42 132.497 1005.51 134.955C1010.61 137.413 1017.58 133.538 1021.07 126.3Z" fill="#6AC5A0"/>
<path d="M1047.43 131.538C1053.64 125.257 1055.34 116.864 1051.22 112.791C1047.1 108.718 1038.73 110.507 1032.52 116.788C1026.3 123.069 1024.6 131.462 1028.72 135.535C1032.84 139.608 1041.21 137.818 1047.43 131.538Z" fill="#6AC5A0"/>
<path d="M1144.15 245.717C1140.59 246.795 1136.28 247.079 1133.16 244.483C1125.65 238.227 1129.43 227.801 1126.86 219.285C1124.66 212.012 1115.29 204.341 1117.28 196.451C1118.46 191.785 1122.51 188.937 1126.6 187.7C1132.2 186.006 1138.13 188.52 1143.62 193.206C1145.84 195.099 1152.02 196.07 1157.07 198.087C1162.12 200.106 1166.06 203.392 1167.18 207.087C1168.72 212.201 1167.28 216.632 1164.53 220.328C1161.3 224.653 1156.47 228.029 1155.42 231.184C1153.17 237.894 1150.68 243.744 1144.15 245.717Z" fill="#6AC5A0"/>
<path d="M1163.92 183.602C1169.93 178.273 1171.76 170.519 1168.01 166.283C1164.26 162.047 1156.34 162.933 1150.32 168.262C1144.31 173.591 1142.48 181.346 1146.23 185.581C1149.99 189.817 1157.9 188.931 1163.92 183.602Z" fill="#6AC5A0"/>
<path d="M1186.19 198.57C1194.35 195.176 1199.16 188.09 1196.93 182.744C1194.71 177.397 1186.29 175.815 1178.13 179.209C1169.98 182.603 1165.17 189.689 1167.39 195.036C1169.62 200.382 1178.03 201.965 1186.19 198.57Z" fill="#6AC5A0"/>
<path d="M1190.49 240.516C1191.27 234.91 1185.44 229.471 1177.49 228.369C1169.53 227.266 1162.44 230.918 1161.67 236.524C1160.89 242.13 1166.71 247.569 1174.67 248.671C1182.63 249.774 1189.71 246.122 1190.49 240.516Z" fill="#6AC5A0"/>
<path d="M1191.77 224.097C1200.44 222.402 1206.57 216.42 1205.46 210.736C1204.35 205.053 1196.42 201.82 1187.75 203.515C1179.08 205.211 1172.95 211.192 1174.06 216.876C1175.17 222.56 1183.1 225.793 1191.77 224.097Z" fill="#6AC5A0"/>
<path d="M1157.78 48.9381C1155.37 51.772 1153.39 55.6096 1154.53 59.505C1157.26 68.8926 1168.33 69.5825 1175.11 75.3448C1180.9 80.2671 1184.19 91.9162 1192.22 93.2431C1196.97 94.0277 1201.2 91.4523 1203.97 88.1962C1207.75 83.7401 1207.82 77.2948 1205.71 70.3925C1204.86 67.6049 1206.45 61.5426 1206.61 56.1104C1206.78 50.6735 1205.34 45.749 1202.4 43.2498C1198.33 39.7882 1193.69 39.3429 1189.2 40.3929C1183.95 41.6205 1178.92 44.699 1175.61 44.4105C1168.56 43.7944 1162.2 43.7436 1157.78 48.9381Z" fill="#6AC5A0"/>
<path d="M1231.26 74.1891C1238.55 70.8037 1242.52 63.8981 1240.14 58.765C1237.75 53.632 1229.91 52.2152 1222.62 55.6006C1215.34 58.9861 1211.36 65.8916 1213.75 71.0247C1216.13 76.1578 1223.97 77.5745 1231.26 74.1891Z" fill="#6AC5A0"/>
<path d="M1232.46 44.2846C1238.83 38.1621 1240.74 29.8139 1236.72 25.6384C1232.71 21.4629 1224.29 23.0412 1217.92 29.1637C1211.55 35.2862 1209.64 43.6344 1213.66 47.81C1217.67 51.9855 1226.09 50.4071 1232.46 44.2846Z" fill="#6AC5A0"/>
<path d="M1187.07 25.3559C1189.24 17.6184 1186.58 10.1079 1181.13 8.58082C1175.68 7.05375 1169.5 12.0884 1167.33 19.8259C1165.17 27.5635 1167.83 35.0739 1173.28 36.6009C1178.73 38.128 1184.9 33.0935 1187.07 25.3559Z" fill="#6AC5A0"/>
<path d="M1213.81 25.8416C1218.83 18.5697 1219.03 10.009 1214.26 6.72067C1209.5 3.43238 1201.57 6.66179 1196.55 13.9337C1191.53 21.2056 1191.33 29.7663 1196.1 33.0546C1200.86 36.3429 1208.8 33.1135 1213.81 25.8416Z" fill="#6AC5A0"/>
</svg>
