<svg width="1440" height="929" viewBox="0 0 1440 929" fill="none" xmlns="http://www.w3.org/2000/svg">
<path d="M136.375 789.518C133.221 791.422 129.154 792.749 125.528 791.019C116.788 786.852 117.876 775.923 113.324 768.383C109.435 761.939 98.575 756.871 98.5567 748.814C98.5452 744.048 101.735 740.328 105.359 738.141C110.317 735.148 116.626 736.108 123.037 739.263C125.629 740.538 131.802 739.958 137.138 740.659C142.478 741.363 147.061 743.552 149.035 746.824C151.771 751.353 151.467 755.957 149.728 760.177C147.692 765.115 143.885 769.534 143.641 772.82C143.117 779.807 142.153 786.031 136.375 789.518Z" fill="#ECEAEA"/>
<path d="M140.193 725.083C144.662 718.499 144.525 710.611 139.888 707.464C135.251 704.317 127.87 707.102 123.401 713.685C118.933 720.268 119.07 728.156 123.707 731.304C128.343 734.451 135.725 731.666 140.193 725.083Z" fill="#ECEAEA"/>
<path d="M165.21 733.924C172.206 728.674 175.088 720.699 171.646 716.113C168.204 711.527 159.743 712.065 152.746 717.316C145.75 722.566 142.868 730.54 146.31 735.127C149.752 739.713 158.213 739.174 165.21 733.924Z" fill="#ECEAEA"/>
<path d="M166.35 784.871C174.257 783.984 180.16 778.75 179.535 773.18C178.91 767.611 171.994 763.815 164.087 764.702C156.18 765.589 150.276 770.823 150.901 776.393C151.526 781.962 158.442 785.758 166.35 784.871Z" fill="#ECEAEA"/>
<path d="M176.823 757.147C184.728 753.402 189.146 746.164 186.691 740.982C184.235 735.8 175.836 734.636 167.931 738.382C160.026 742.127 155.608 749.365 158.063 754.547C160.518 759.729 168.918 760.893 176.823 757.147Z" fill="#ECEAEA"/>
<path d="M101.366 597.373C99.7486 600.68 98.7843 604.85 100.825 608.309C105.744 616.649 116.536 614.604 124.446 618.477C131.205 621.786 137.21 632.159 145.237 631.469C149.985 631.06 153.413 627.558 155.273 623.758C157.818 618.557 156.308 612.356 152.601 606.246C151.105 603.778 151.139 597.577 149.971 592.321C148.802 587.064 146.217 582.69 142.785 581.011C138.033 578.685 133.474 579.391 129.423 581.495C124.684 583.956 120.617 588.138 117.363 588.67C110.447 589.806 104.332 591.312 101.366 597.373Z" fill="#ECEAEA"/>
<path d="M178.051 603.646C184.216 598.617 186.342 591.019 182.8 586.676C179.258 582.334 171.388 582.89 165.222 587.919C159.057 592.949 156.93 600.546 160.473 604.889C164.015 609.232 171.885 608.675 178.051 603.646Z" fill="#ECEAEA"/>
<path d="M171.837 574.683C176.452 567.251 176.245 558.775 171.373 555.749C166.502 552.724 158.812 556.296 154.197 563.727C149.581 571.158 149.789 579.635 154.66 582.66C159.531 585.685 167.222 582.114 171.837 574.683Z" fill="#ECEAEA"/>
<path d="M123.68 567.58C123.87 559.626 119.481 553.07 113.879 552.936C108.276 552.803 103.581 559.143 103.392 567.097C103.202 575.051 107.591 581.607 113.193 581.741C118.796 581.874 123.491 575.534 123.68 567.58Z" fill="#ECEAEA"/>
<path d="M149.519 561.457C152.555 553.253 150.657 544.99 145.279 542.999C139.902 541.009 133.081 546.046 130.045 554.249C127.008 562.453 128.906 570.717 134.284 572.707C139.661 574.698 146.482 569.661 149.519 561.457Z" fill="#ECEAEA"/>
<path d="M264.589 651.563C261.097 652.735 256.838 653.144 253.676 650.667C246.053 644.699 249.492 634.266 246.691 625.917C244.296 618.783 234.8 611.471 236.534 603.602C237.56 598.948 241.484 596.012 245.496 594.666C250.987 592.824 256.934 595.134 262.507 599.608C264.758 601.415 270.911 602.192 275.966 604.041C281.024 605.889 285.021 609.024 286.236 612.646C287.92 617.661 286.622 622.09 284.006 625.83C280.944 630.206 276.267 633.69 275.312 636.846C273.283 643.552 270.989 649.415 264.589 651.563Z" fill="#ECEAEA"/>
<path d="M282.374 589.484C288.167 584.031 289.751 576.302 285.909 572.221C282.068 568.14 274.257 569.252 268.463 574.705C262.67 580.159 261.087 587.888 264.928 591.969C268.769 596.05 276.58 594.938 282.374 589.484Z" fill="#ECEAEA"/>
<path d="M304.872 603.599C312.844 599.997 317.392 592.84 315.031 587.615C312.669 582.389 304.293 581.073 296.321 584.676C288.349 588.278 283.801 595.434 286.162 600.66C288.524 605.886 296.9 607.202 304.872 603.599Z" fill="#ECEAEA"/>
<path d="M310.285 644.975C310.886 639.403 304.962 634.194 297.051 633.339C289.141 632.485 282.241 636.309 281.639 641.88C281.037 647.452 286.961 652.662 294.872 653.516C302.782 654.371 309.683 650.547 310.285 644.975Z" fill="#ECEAEA"/>
<path d="M311.057 628.774C319.588 626.839 325.475 620.737 324.207 615.145C322.939 609.553 314.995 606.588 306.464 608.523C297.933 610.458 292.046 616.56 293.314 622.152C294.583 627.744 302.526 630.709 311.057 628.774Z" fill="#ECEAEA"/>
<path d="M272.236 456.404C269.937 459.281 268.088 463.138 269.327 466.961C272.313 476.171 283.29 476.526 290.17 482.025C296.047 486.725 299.65 498.157 307.636 499.231C312.359 499.866 316.465 497.19 319.109 493.886C322.726 489.365 322.6 482.983 320.311 476.212C319.385 473.477 320.77 467.434 320.775 462.05C320.777 456.665 319.205 451.835 316.223 449.447C312.092 446.143 307.488 445.839 303.075 447.011C297.914 448.382 293.033 451.576 289.745 451.391C282.746 450.994 276.451 451.133 272.236 456.404Z" fill="#ECEAEA"/>
<path d="M345.724 479.225C352.836 475.658 356.565 468.705 354.053 463.695C351.541 458.686 343.738 457.516 336.626 461.083C329.514 464.65 325.785 471.603 328.297 476.612C330.81 481.622 338.612 482.791 345.724 479.225Z" fill="#ECEAEA"/>
<path d="M345.931 449.586C352.052 443.338 353.695 435.019 349.599 431.007C345.503 426.994 337.22 428.806 331.098 435.055C324.976 441.303 323.334 449.622 327.43 453.634C331.526 457.647 339.809 455.835 345.931 449.586Z" fill="#ECEAEA"/>
<path d="M300.525 432.172C302.441 424.449 299.584 417.095 294.145 415.745C288.705 414.396 282.742 419.562 280.827 427.285C278.911 435.007 281.767 442.361 287.206 443.711C292.646 445.06 298.609 439.894 300.525 432.172Z" fill="#ECEAEA"/>
<path d="M327.063 431.841C331.812 424.495 331.759 416.016 326.943 412.903C322.127 409.79 314.374 413.221 309.624 420.568C304.875 427.914 304.929 436.393 309.745 439.506C314.56 442.619 322.314 439.188 327.063 431.841Z" fill="#ECEAEA"/>
<path d="M413.343 540.821C409.662 540.73 405.52 539.663 403.392 536.254C398.265 528.042 405.06 519.411 405.277 510.605C405.463 503.083 399.033 492.968 403.349 486.166C405.904 482.142 410.592 480.721 414.824 480.826C420.614 480.967 425.417 485.172 429.125 491.279C430.624 493.747 436.14 496.578 440.262 500.04C444.386 503.504 447.071 507.815 446.978 511.636C446.847 516.925 444.117 520.643 440.381 523.266C436.01 526.335 430.423 528.012 428.449 530.651C424.252 536.258 420.093 540.986 413.343 540.821Z" fill="#ECEAEA"/>
<path d="M451.226 488.518C458.534 485.371 462.66 478.647 460.443 473.5C458.226 468.353 450.505 466.732 443.198 469.879C435.89 473.027 431.764 479.751 433.981 484.898C436.198 490.045 443.919 491.666 451.226 488.518Z" fill="#ECEAEA"/>
<path d="M467.549 509.485C476.271 508.821 482.989 503.647 482.554 497.93C482.119 492.212 474.695 488.115 465.973 488.779C457.251 489.443 450.533 494.617 450.968 500.334C451.403 506.052 458.827 510.149 467.549 509.485Z" fill="#ECEAEA"/>
<path d="M458.558 550.246C461.026 545.215 457.236 538.295 450.093 534.791C442.949 531.287 435.158 532.525 432.69 537.557C430.221 542.588 434.012 549.508 441.155 553.012C448.298 556.516 456.09 555.278 458.558 550.246Z" fill="#ECEAEA"/>
<path d="M481.88 526.932C482.596 521.243 476.141 515.744 467.462 514.651C458.782 513.557 451.165 517.283 450.448 522.972C449.731 528.662 456.187 534.161 464.866 535.254C473.546 536.348 481.163 532.622 481.88 526.932Z" fill="#ECEAEA"/>
<path d="M487.161 359.998C484.017 361.915 480.962 364.911 480.823 368.926C480.484 378.6 490.682 382.683 495.27 390.203C499.189 396.626 498.673 408.601 505.813 412.337C510.036 414.547 514.809 413.434 518.421 411.231C523.364 408.215 525.425 402.176 525.585 395.031C525.648 392.145 529.014 386.935 530.854 381.877C532.695 376.815 532.867 371.738 530.876 368.475C528.121 363.96 523.896 362.103 519.351 361.696C514.032 361.223 508.354 362.56 505.326 361.26C498.887 358.502 492.924 356.484 487.161 359.998Z" fill="#ECEAEA"/>
<path d="M548.432 406.515C556.335 405.591 562.213 400.329 561.562 394.763C560.911 389.197 553.977 385.434 546.074 386.358C538.172 387.283 532.294 392.545 532.945 398.111C533.596 403.677 540.53 407.44 548.432 406.515Z" fill="#ECEAEA"/>
<path d="M558.769 378.818C566.657 375.035 571.041 367.778 568.562 362.607C566.082 357.436 557.678 356.311 549.79 360.094C541.902 363.876 537.518 371.134 539.997 376.305C542.477 381.475 550.881 382.6 558.769 378.818Z" fill="#ECEAEA"/>
<path d="M522.039 346.859C526.477 340.254 526.303 332.366 521.651 329.241C516.998 326.115 509.63 328.936 505.193 335.54C500.755 342.145 500.929 350.033 505.582 353.158C510.234 356.284 517.602 353.464 522.039 346.859Z" fill="#ECEAEA"/>
<path d="M547.09 355.627C554.062 350.344 556.906 342.356 553.443 337.785C549.979 333.215 541.52 333.794 534.548 339.077C527.576 344.361 524.732 352.349 528.195 356.919C531.658 361.489 540.118 360.911 547.09 355.627Z" fill="#ECEAEA"/>
<path d="M584.898 502.252C581.4 501.105 577.74 498.886 576.686 495.011C574.143 485.67 583.137 479.363 585.883 470.994C588.23 463.844 584.987 452.305 591.081 447.034C594.687 443.917 599.588 443.908 603.607 445.226C609.109 447.032 612.498 452.44 614.289 459.359C615.014 462.153 619.481 466.453 622.428 470.957C625.378 475.463 626.708 480.366 625.518 483.997C623.868 489.024 620.182 491.798 615.848 493.233C610.777 494.91 604.944 494.908 602.294 496.866C596.657 501.027 591.312 504.356 584.898 502.252Z" fill="#ECEAEA"/>
<path d="M636.265 463.128C644.17 462.22 650.06 456.971 649.42 451.403C648.781 445.835 641.854 442.057 633.95 442.965C626.045 443.873 620.155 449.123 620.795 454.69C621.434 460.258 628.36 464.036 636.265 463.128Z" fill="#ECEAEA"/>
<path d="M663.572 481.134C664.803 475.533 658.875 469.47 650.331 467.592C641.787 465.714 633.863 468.732 632.632 474.332C631.4 479.933 637.329 485.996 645.872 487.874C654.416 489.752 662.341 486.734 663.572 481.134Z" fill="#ECEAEA"/>
<path d="M625.45 524.265C629.263 520.159 627.628 512.441 621.797 507.027C615.967 501.614 608.149 500.554 604.336 504.661C600.523 508.768 602.158 516.486 607.989 521.899C613.819 527.313 621.637 528.372 625.45 524.265Z" fill="#ECEAEA"/>
<path d="M654.458 508.726C656.784 503.485 652.188 496.36 644.192 492.812C636.197 489.264 627.83 490.636 625.504 495.877C623.178 501.118 627.775 508.244 635.77 511.792C643.765 515.34 652.132 513.967 654.458 508.726Z" fill="#ECEAEA"/>
<path d="M707.696 350.377C704.134 351.306 700.345 353.294 699.054 357.099C695.942 366.266 704.531 373.114 706.757 381.637C708.658 388.919 704.714 400.236 710.472 405.871C713.879 409.202 718.771 409.515 722.863 408.446C728.466 406.981 732.181 401.792 734.393 394.997C735.287 392.253 740.01 388.233 743.231 383.919C746.453 379.603 748.082 374.791 747.116 371.094C745.779 365.976 742.269 362.98 738.033 361.283C733.075 359.297 727.253 358.94 724.728 356.825C719.356 352.321 714.226 348.67 707.696 350.377Z" fill="#ECEAEA"/>
<path d="M768.918 405.069C769.898 399.551 764.342 393.95 756.508 392.558C748.674 391.167 741.528 394.512 740.548 400.03C739.568 405.548 745.124 411.149 752.958 412.54C760.792 413.932 767.937 410.587 768.918 405.069Z" fill="#ECEAEA"/>
<path d="M770.808 389.01C779.451 387.661 785.741 381.975 784.856 376.31C783.972 370.644 776.249 367.145 767.606 368.494C758.963 369.843 752.674 375.529 753.558 381.194C754.442 386.86 762.165 390.359 770.808 389.01Z" fill="#ECEAEA"/>
<path d="M744.817 347.855C750.969 342.81 753.075 335.207 749.521 330.874C745.968 326.541 738.1 327.118 731.948 332.163C725.796 337.209 723.689 344.811 727.243 349.145C730.797 353.478 738.665 352.901 744.817 347.855Z" fill="#ECEAEA"/>
<path d="M766.31 363.427C774.508 360.377 779.534 353.547 777.534 348.173C775.534 342.799 767.267 340.915 759.069 343.966C750.871 347.016 745.846 353.845 747.845 359.219C749.845 364.594 758.112 366.477 766.31 363.427Z" fill="#ECEAEA"/>
<path d="M815.517 513.809C811.848 513.498 807.776 512.184 805.857 508.656C801.23 500.152 808.526 491.942 809.268 483.166C809.901 475.666 804.086 465.185 808.802 458.653C811.592 454.789 816.358 453.649 820.574 454.005C826.343 454.492 830.888 458.975 834.227 465.293C835.575 467.845 840.915 471.001 844.822 474.702C848.731 478.406 851.156 482.871 850.833 486.677C850.388 491.949 847.44 495.5 843.556 497.894C839.009 500.696 833.333 502.039 831.206 504.555C826.677 509.906 822.244 514.378 815.517 513.809Z" fill="#ECEAEA"/>
<path d="M856.464 463.896C863.946 461.19 868.467 454.724 866.561 449.454C864.655 444.184 857.044 442.105 849.562 444.811C842.079 447.517 837.559 453.983 839.465 459.253C841.371 464.523 848.982 466.602 856.464 463.896Z" fill="#ECEAEA"/>
<path d="M871.53 485.796C880.276 485.654 887.291 480.89 887.198 475.156C887.104 469.423 879.938 464.89 871.191 465.033C862.444 465.175 855.429 469.939 855.523 475.673C855.616 481.406 862.783 485.939 871.53 485.796Z" fill="#ECEAEA"/>
<path d="M860.081 525.837C862.844 520.961 859.473 513.828 852.551 509.905C845.629 505.982 837.777 506.754 835.013 511.629C832.25 516.505 835.621 523.638 842.543 527.561C849.466 531.485 857.317 530.713 860.081 525.837Z" fill="#ECEAEA"/>
<path d="M884.681 504.067C885.735 498.431 879.62 492.558 871.022 490.949C862.424 489.341 854.599 492.606 853.544 498.242C852.49 503.878 858.605 509.751 867.203 511.36C875.801 512.968 883.626 509.704 884.681 504.067Z" fill="#ECEAEA"/>
<path d="M899.985 337.711C896.733 339.439 893.505 342.247 893.125 346.245C892.211 355.883 902.146 360.565 906.28 368.345C909.81 374.992 908.581 386.915 915.484 391.069C919.567 393.525 924.397 392.7 928.135 390.717C933.249 388 935.666 382.094 936.254 374.972C936.491 372.095 940.161 367.095 942.3 362.155C944.438 357.213 944.914 352.154 943.122 348.782C940.641 344.109 936.535 342.002 932.022 341.328C926.739 340.538 920.993 341.534 918.047 340.058C911.78 336.914 905.946 334.544 899.985 337.711Z" fill="#ECEAEA"/>
<path d="M958.417 387.791C966.361 387.339 972.543 382.437 972.224 376.841C971.906 371.246 965.208 367.077 957.264 367.528C949.321 367.98 943.139 372.883 943.457 378.478C943.776 384.073 950.473 388.243 958.417 387.791Z" fill="#ECEAEA"/>
<path d="M970.294 360.716C978.393 357.41 983.202 350.426 981.035 345.118C978.868 339.809 970.546 338.185 962.447 341.491C954.348 344.797 949.54 351.78 951.707 357.089C953.874 362.398 962.196 364.021 970.294 360.716Z" fill="#ECEAEA"/>
<path d="M935.567 326.719C940.39 320.391 940.687 312.507 936.23 309.11C931.773 305.712 924.25 308.088 919.427 314.416C914.603 320.744 914.307 328.627 918.764 332.025C923.221 335.422 930.744 333.046 935.567 326.719Z" fill="#ECEAEA"/>
<path d="M960.074 336.92C967.349 332.061 970.664 324.257 967.479 319.488C964.295 314.72 955.816 314.793 948.541 319.651C941.266 324.509 937.951 332.314 941.136 337.082C944.321 341.851 952.8 341.778 960.074 336.92Z" fill="#ECEAEA"/>
<path d="M1029.15 468.167C1025.5 468.599 1021.25 468.128 1018.66 465.057C1012.42 457.654 1017.92 448.149 1016.89 439.4C1016 431.926 1008.2 422.825 1011.51 415.479C1013.47 411.133 1017.91 409.06 1022.11 408.565C1027.86 407.886 1033.21 411.364 1037.75 416.884C1039.58 419.114 1045.45 421.134 1050.02 423.977C1054.59 426.821 1057.86 430.708 1058.31 434.503C1058.93 439.756 1056.75 443.826 1053.43 446.952C1049.54 450.61 1044.25 453.061 1042.67 455.954C1039.3 462.105 1035.86 467.377 1029.15 468.167Z" fill="#ECEAEA"/>
<path d="M1059.28 411.082C1066.07 406.93 1069.2 399.689 1066.28 394.908C1063.36 390.127 1055.48 389.617 1048.69 393.768C1041.91 397.92 1038.77 405.161 1041.7 409.942C1044.62 414.723 1052.5 415.234 1059.28 411.082Z" fill="#ECEAEA"/>
<path d="M1078.39 429.515C1086.93 427.621 1092.85 421.547 1091.61 415.949C1090.37 410.351 1082.44 407.348 1073.9 409.242C1065.36 411.135 1059.44 417.209 1060.68 422.807C1061.92 428.406 1069.85 431.409 1078.39 429.515Z" fill="#ECEAEA"/>
<path d="M1075.22 471.042C1076.95 465.712 1072.22 459.4 1064.65 456.944C1057.08 454.489 1049.54 456.82 1047.82 462.151C1046.09 467.481 1050.82 473.793 1058.39 476.249C1065.96 478.704 1073.49 476.373 1075.22 471.042Z" fill="#ECEAEA"/>
<path d="M1079.41 455.349C1088.16 455.2 1095.17 450.432 1095.07 444.698C1094.97 438.964 1087.8 434.437 1079.06 434.585C1070.31 434.734 1063.3 439.503 1063.4 445.236C1063.49 450.97 1070.66 455.498 1079.41 455.349Z" fill="#ECEAEA"/>
<path d="M1076.58 278.707C1073.74 281.052 1071.15 284.449 1071.58 288.443C1072.61 298.07 1083.29 300.663 1088.9 307.456C1093.69 313.26 1094.87 325.187 1102.47 327.872C1106.97 329.46 1111.53 327.683 1114.79 324.989C1119.26 321.303 1120.44 315.031 1119.59 307.936C1119.24 305.071 1121.83 299.436 1122.94 294.169C1124.05 288.898 1123.49 283.848 1121.06 280.901C1117.7 276.822 1113.25 275.581 1108.69 275.826C1103.36 276.112 1097.93 278.241 1094.75 277.384C1087.98 275.561 1081.79 274.409 1076.58 278.707Z" fill="#ECEAEA"/>
<path d="M1143.85 316.043C1151.54 314.007 1156.62 307.965 1155.18 302.547C1153.75 297.13 1146.35 294.388 1138.66 296.424C1130.97 298.46 1125.9 304.503 1127.33 309.92C1128.76 315.338 1136.16 318.079 1143.85 316.043Z" fill="#ECEAEA"/>
<path d="M1150.08 287.167C1157.35 282.304 1160.66 274.498 1157.48 269.732C1154.29 264.966 1145.81 265.044 1138.54 269.907C1131.27 274.77 1127.96 282.576 1131.14 287.342C1134.33 292.108 1142.81 292.03 1150.08 287.167Z" fill="#ECEAEA"/>
<path d="M1109.19 260.706C1112.65 253.539 1111.36 245.755 1106.31 243.321C1101.26 240.887 1094.37 244.725 1090.91 251.892C1087.46 259.059 1088.75 266.842 1093.8 269.276C1098.84 271.71 1105.74 267.873 1109.19 260.706Z" fill="#ECEAEA"/>
<path d="M1135.29 265.892C1141.44 259.673 1143.13 251.363 1139.05 247.33C1134.97 243.297 1126.68 245.069 1120.53 251.288C1114.38 257.506 1112.7 265.817 1116.77 269.85C1120.85 273.883 1129.14 272.111 1135.29 265.892Z" fill="#ECEAEA"/>
<path d="M1231.06 378.947C1227.54 380.014 1223.27 380.295 1220.18 377.725C1212.74 371.53 1216.49 361.207 1213.94 352.776C1211.76 345.574 1202.49 337.978 1204.46 330.166C1205.63 325.546 1209.64 322.727 1213.68 321.502C1219.23 319.825 1225.1 322.313 1230.54 326.954C1232.73 328.827 1238.86 329.789 1243.86 331.786C1248.86 333.786 1252.76 337.039 1253.86 340.698C1255.4 345.761 1253.97 350.148 1251.24 353.808C1248.05 358.09 1243.27 361.433 1242.22 364.557C1240 371.201 1237.53 376.994 1231.06 378.947Z" fill="#ECEAEA"/>
<path d="M1250.64 317.444C1256.59 312.167 1258.41 304.489 1254.69 300.295C1250.97 296.101 1243.13 296.978 1237.18 302.255C1231.22 307.532 1229.41 315.21 1233.13 319.404C1236.84 323.598 1244.68 322.72 1250.64 317.444Z" fill="#ECEAEA"/>
<path d="M1272.69 332.264C1280.77 328.904 1285.53 321.888 1283.33 316.594C1281.12 311.3 1272.79 309.733 1264.71 313.094C1256.64 316.455 1251.88 323.471 1254.08 328.765C1256.28 334.058 1264.62 335.625 1272.69 332.264Z" fill="#ECEAEA"/>
<path d="M1276.95 373.797C1277.72 368.246 1271.95 362.861 1264.07 361.77C1256.19 360.678 1249.18 364.293 1248.41 369.844C1247.64 375.395 1253.41 380.78 1261.29 381.872C1269.17 382.963 1276.18 379.348 1276.95 373.797Z" fill="#ECEAEA"/>
<path d="M1278.22 357.54C1286.8 355.861 1292.87 349.938 1291.77 344.311C1290.67 338.683 1282.82 335.482 1274.23 337.161C1265.65 338.839 1259.58 344.762 1260.68 350.39C1261.78 356.018 1269.63 359.219 1278.22 357.54Z" fill="#ECEAEA"/>
<path d="M1244.56 184.106C1242.18 186.912 1240.21 190.712 1241.34 194.569C1244.05 203.864 1255.01 204.547 1261.72 210.253C1267.45 215.127 1270.71 226.661 1278.66 227.975C1283.36 228.752 1287.55 226.202 1290.29 222.978C1294.04 218.565 1294.11 212.184 1292.02 205.349C1291.18 202.589 1292.75 196.587 1292.91 191.208C1293.07 185.825 1291.65 180.949 1288.74 178.474C1284.7 175.047 1280.11 174.606 1275.67 175.645C1270.47 176.861 1265.49 179.909 1262.21 179.623C1255.23 179.013 1248.93 178.963 1244.56 184.106Z" fill="#ECEAEA"/>
<path d="M1317.32 209.109C1324.53 205.757 1328.47 198.919 1326.11 193.837C1323.75 188.754 1315.98 187.351 1308.77 190.703C1301.55 194.055 1297.62 200.893 1299.98 205.975C1302.34 211.058 1310.1 212.461 1317.32 209.109Z" fill="#ECEAEA"/>
<path d="M1318.5 179.498C1324.81 173.436 1326.7 165.17 1322.72 161.036C1318.75 156.902 1310.42 158.464 1304.11 164.527C1297.8 170.589 1295.91 178.855 1299.88 182.989C1303.86 187.123 1312.19 185.561 1318.5 179.498Z" fill="#ECEAEA"/>
<path d="M1273.56 160.756C1275.71 153.095 1273.07 145.659 1267.68 144.147C1262.28 142.635 1256.17 147.62 1254.02 155.281C1251.87 162.942 1254.51 170.379 1259.9 171.891C1265.3 173.403 1271.41 168.418 1273.56 160.756Z" fill="#ECEAEA"/>
<path d="M1300.04 161.237C1305.01 154.037 1305.21 145.56 1300.49 142.304C1295.77 139.049 1287.91 142.246 1282.95 149.446C1277.98 156.647 1277.78 165.123 1282.5 168.379C1287.22 171.635 1295.07 168.437 1300.04 161.237Z" fill="#ECEAEA"/>
</svg>
