<svg width="70" height="70" viewBox="0 0 70 70" fill="none" xmlns="http://www.w3.org/2000/svg">
<rect x="1" y="1" width="68" height="68" fill="#1D1D1B"/>
<path d="M7.9668 37.6212V37.2053H9.34778V24.6742H7.9668V24.2369H12.9154V25.2731C13.1006 25.019 13.9753 23.9847 15.8153 23.9847C18.5772 23.9847 20.3049 26.0808 20.3049 29.2565C20.3049 32.4321 18.4866 34.7802 15.7464 34.7802C13.9517 34.7802 13.0986 33.7914 12.9154 33.5372V37.2053H14.2511V37.6212H7.9668ZM12.9154 31.7879C12.9154 33.2613 13.6286 33.8132 14.4816 33.8132C15.9788 33.8132 16.6447 32.1562 16.6447 29.3707C16.6447 26.5851 15.9768 24.95 14.5033 24.95C13.6286 24.95 12.9154 25.5489 12.9154 27.0442V31.786V31.7879Z" fill="#FFDB46"/>
<path d="M31.5388 31.5574C31.3082 33.4682 29.7894 35.0107 26.8895 35.0107C23.4145 35.0107 21.3184 32.8003 21.3184 29.5775C21.3184 26.3546 23.5051 23.9827 26.8659 23.9827C29.9746 23.9827 31.7239 26.0079 31.7002 29.0023H24.9313V29.347C24.9313 31.9947 25.7607 33.8819 28.1779 33.8819C29.6968 33.8819 30.7803 33.0072 31.0088 31.5574H31.5388ZM28.2015 28.5649C28.2015 25.6651 27.7642 24.4673 26.7516 24.4673C25.739 24.4673 25.0259 25.8719 24.9333 28.5649H28.2015Z" fill="#FFDB46"/>
<path d="M39.9624 31.9948C39.9624 33.6751 38.5813 35.0107 36.5564 35.0107C34.0701 35.0107 32.9195 33.63 32.9195 31.5574V24.6743H31.791V24.2369H32.9195V22.326L36.4656 21.1519V24.2369H39.6651V24.6743H36.4656V31.6265C36.4656 32.8931 36.9266 33.6063 38.0081 33.6063C38.9064 33.6063 39.4819 32.8694 39.4819 31.9948H39.9643H39.9624Z" fill="#FFDB46"/>
<path d="M48.8726 27.9661C48.597 25.8936 47.5155 24.5363 45.512 24.5363C44.2454 24.5363 43.5775 25.1805 43.5775 26.0788C43.5775 28.8408 49.5859 27.3672 49.5859 31.5574C49.5859 33.4682 48.136 35.0107 44.7751 35.0107C42.7028 35.0107 41.9205 34.2741 41.1149 34.2741C40.8844 34.2741 40.6539 34.4356 40.6539 34.8965H40.2402V30.8226H40.6085C40.9317 33.0567 42.1965 34.5283 44.3378 34.5283C45.6044 34.5283 46.3413 33.8841 46.3413 32.9167C46.3413 30.1784 40.3802 31.3289 40.3802 27.4618C40.3802 25.5962 41.7156 24.0084 45.0075 24.0084C46.895 24.0084 47.7006 24.6526 48.4138 24.6526C48.6443 24.6526 48.8512 24.5146 48.8512 24.0773H49.2649V27.9681H48.8726V27.9661Z" fill="#FFDB46"/>
<path d="M56.6187 39.8549V39.8038H56.8V38.0327H56.7313C56.4298 38.0327 56.3116 38.226 56.2662 38.5451H56.2129V37.8829H56.2602C56.2583 37.952 56.2838 37.9854 56.3371 37.9854H57.7674C57.8207 37.9854 57.8481 37.9539 57.8443 37.8829H57.8913V38.5451H57.8383C57.7929 38.2238 57.6747 38.0327 57.3732 38.0327H57.3045V39.8038H57.4855V39.8549H56.6168H56.6187Z" fill="#FFDB46"/>
<path d="M59.2631 39.8549V39.8038H59.4422V38.2752C59.2985 38.8011 59.149 39.3309 59.0071 39.8549H58.6858L58.2112 38.2632V39.4983C58.2112 39.7171 58.2879 39.8057 58.3787 39.8057H58.408V39.8571H57.9492V39.8057H57.9785C58.0694 39.8057 58.146 39.7171 58.146 39.4983V38.0387H57.9669V37.9854H58.6464L59.0582 39.4236L59.4542 37.9854H60.1082V38.0387H59.9291V39.8057H60.1082V39.8571H59.2631V39.8549Z" fill="#FFDB46"/>
<path d="M32.253 46.0922C32.253 46.6673 31.9534 47.1283 31.4708 47.1283C30.9881 47.1283 30.8266 46.76 30.8266 46.1158V41.3738C30.8266 38.8879 29.1462 37.5522 26.1065 37.5522C23.0668 37.5522 21.5262 38.9566 21.5262 40.5445C21.5262 41.5334 22.2866 42.2702 23.2992 42.2702C24.4044 42.2702 25.2337 41.5788 25.2337 40.659C25.2337 39.7389 24.497 39.2089 23.6459 39.2089C23.4844 39.2089 23.4154 39.1165 23.4154 39.0474C23.4154 38.5864 24.1975 38.08 25.3263 38.08C26.6836 38.08 27.4677 38.7479 27.4677 40.0362C27.4677 44.2482 20.9766 41.9237 20.9766 45.9285C20.9766 47.5852 22.3812 48.5762 24.1542 48.5762C26.3862 48.5762 27.3318 46.9647 27.515 46.6891C27.8144 47.8866 28.7344 48.5545 30.139 48.5545C31.9809 48.5545 32.6705 47.2425 32.6705 46.0922H32.2568H32.253ZM27.3259 45.6785C27.3259 46.6673 26.727 47.3134 25.8523 47.3134C25.1156 47.3134 24.4714 46.7619 24.4714 45.6567C24.4714 43.3537 26.1971 43.1468 27.3259 41.9966V45.6804V45.6785Z" fill="#FFDB46"/>
<path d="M48.251 39.6225C48.251 38.7242 48.9189 38.08 50.1855 38.08C52.189 38.08 53.2705 39.4375 53.5464 41.51H53.9384V37.619H53.5247C53.5247 38.0564 53.3178 38.1945 53.0874 38.1945C52.3744 38.1945 51.5685 37.5503 49.6813 37.5503C46.3894 37.5503 45.0537 39.1379 45.0537 41.0036C45.0537 44.8707 51.0151 43.7201 51.0151 46.4586C51.0151 47.4257 50.2782 48.0698 49.0116 48.0698C46.8703 48.0698 45.6055 46.5964 45.2824 44.3643H44.9141V48.4384H45.3278C45.3278 47.9775 45.5583 47.8157 45.7887 47.8157C46.5944 47.8157 47.3764 48.5526 49.4489 48.5526C52.8096 48.5526 54.2597 47.0101 54.2597 45.0993C54.2597 40.909 48.251 42.3825 48.251 39.6207V39.6225Z" fill="#FFDB46"/>
<path d="M19.3848 47.8866V36.8487V37.2646V34.8256L15.7698 35.9999V37.2646V36.8487V47.8866H14.3672V48.324H20.7204V47.8866H19.3848Z" fill="#FFDB46"/>
<path d="M39.5272 37.5285C37.7091 37.5285 36.8108 38.5646 36.6276 38.8169V35.9999L33.1739 34.8256V45.8853C33.1739 46.7363 33.0125 47.3115 32.782 48.072L32.4824 48.9704H32.9652C33.3789 47.5893 33.7021 47.1737 34.2318 47.1737C35.4297 47.1737 36.0266 48.5094 38.306 48.5094C41.7593 48.5094 44.0151 46.0922 44.0151 42.7312C44.0151 39.6462 42.3344 37.5285 39.5253 37.5285H39.5272ZM38.2152 47.9793C37.3641 47.9793 36.6276 47.4278 36.6276 45.9067V40.5899C36.6276 39.0928 37.3405 38.5173 38.2152 38.5173C39.689 38.5173 40.3568 40.3121 40.3568 43.0758C40.3568 45.8399 39.689 47.9793 38.2152 47.9793Z" fill="#FFDB46"/>
<path d="M58.1266 24.2369V24.6289H58.4949C59.7145 24.6289 59.9214 25.5962 59.484 26.6777L57.6893 31.2363L54.8584 24.6762H56.2394V24.2388H49.748V24.6762H51.1055L55.0318 33.0173L55.1617 33.2929L55.5067 34.0376L55.5164 34.0572L55.6561 34.3627L56.1272 35.3692C55.7447 36.4567 55.2052 37.0438 54.3895 37.1955C53.6192 37.3393 53.2175 37.0634 53.1229 36.6834C53.1563 36.6065 53.2607 36.5397 53.442 36.5059C54.2337 36.3584 54.7698 35.7202 54.6102 34.859C54.4544 34.0219 53.8279 33.553 52.8331 33.7381C51.9054 33.9115 51.3164 34.7704 51.4974 35.7435C51.7418 37.0555 52.7741 37.9403 54.4485 37.6291C55.5457 37.4241 56.2117 36.644 56.6689 35.1725L56.8893 34.6128L57.2598 33.681L59.9901 26.7939C60.4965 25.4819 61.1644 24.6309 62.1317 24.6309H62.431V24.2388H58.1266V24.2369Z" fill="#FFDB46"/>
<rect x="1" y="1" width="68" height="68" stroke="#FFDB46" stroke-width="2"/>
</svg>
