<svg width="43" height="34" viewBox="0 0 43 34" fill="none" xmlns="http://www.w3.org/2000/svg">
<path d="M41.2871 0.603516V2.99609C37.9017 4.23307 35.2487 6.1862 33.3281 8.85547C31.4076 11.4922 30.4473 14.2428 30.4473 17.1074C30.4473 17.7259 30.5449 18.1816 30.7402 18.4746C30.8704 18.6699 31.0169 18.7676 31.1797 18.7676C31.3424 18.7676 31.5866 18.6536 31.9121 18.4258C32.9538 17.6771 34.2721 17.3027 35.8672 17.3027C37.7227 17.3027 39.3665 18.0677 40.7988 19.5977C42.2311 21.0951 42.9473 22.8854 42.9473 24.9688C42.9473 27.1497 42.1172 29.0703 40.457 30.7305C38.8294 32.3906 36.8438 33.2207 34.5 33.2207C31.7656 33.2207 29.4056 32.0977 27.4199 29.8516C25.4342 27.6055 24.4414 24.5944 24.4414 20.8184C24.4414 16.4238 25.7923 12.485 28.4941 9.00195C31.196 5.51888 35.4603 2.7194 41.2871 0.603516ZM17.8008 0.603516V2.99609C14.4154 4.23307 11.7624 6.1862 9.8418 8.85547C7.92122 11.4922 6.96094 14.2428 6.96094 17.1074C6.96094 17.7259 7.05859 18.1816 7.25391 18.4746C7.38411 18.6699 7.5306 18.7676 7.69336 18.7676C7.85612 18.7676 8.10026 18.6536 8.42578 18.4258C9.46745 17.6771 10.7858 17.3027 12.3809 17.3027C14.2363 17.3027 15.8802 18.0677 17.3125 19.5977C18.7448 21.0951 19.4609 22.8854 19.4609 24.9688C19.4609 27.1497 18.6309 29.0703 16.9707 30.7305C15.3431 32.3906 13.3574 33.2207 11.0137 33.2207C8.2793 33.2207 5.91927 32.0977 3.93359 29.8516C1.94792 27.6055 0.955078 24.5944 0.955078 20.8184C0.955078 16.4238 2.30599 12.485 5.00781 9.00195C7.70964 5.51888 11.974 2.7194 17.8008 0.603516Z" fill="white"/>
</svg>
