<svg width="125" height="25" viewBox="0 0 125 25" fill="none" xmlns="http://www.w3.org/2000/svg">
<path d="M11.0489 3.11455C11.3483 2.19324 12.6517 2.19324 12.9511 3.11455L14.4697 7.78831C14.6035 8.20034 14.9875 8.4793 15.4207 8.4793H20.335C21.3037 8.4793 21.7065 9.71891 20.9228 10.2883L16.947 13.1769C16.5966 13.4315 16.4499 13.8829 16.5838 14.2949L18.1024 18.9687C18.4017 19.89 17.3472 20.6561 16.5635 20.0867L12.5878 17.1981C12.2373 16.9435 11.7627 16.9435 11.4122 17.1981L7.43648 20.0867C6.65276 20.6561 5.59828 19.89 5.89763 18.9687L7.41623 14.2949C7.55011 13.8829 7.40345 13.4315 7.05296 13.1769L3.07722 10.2883C2.29351 9.71891 2.69628 8.4793 3.66501 8.4793H8.57929C9.01252 8.4793 9.39647 8.20034 9.53035 7.78831L11.0489 3.11455Z" fill="#FBD77C"/>
<path d="M35.9013 2.85735C36.2154 1.96804 37.4731 1.96804 37.7872 2.85735L39.5371 7.81231C39.6783 8.21202 40.0562 8.4793 40.4801 8.4793H45.9538C46.9426 8.4793 47.3315 9.7612 46.5095 10.3107L42.2285 13.1721C41.8485 13.4262 41.6891 13.9055 41.8413 14.3365L43.5096 19.0602C43.8299 19.9671 42.8105 20.7591 42.011 20.2246L37.4 17.1425C37.0636 16.9177 36.6249 16.9177 36.2886 17.1425L31.6775 20.2246C30.878 20.7591 29.8586 19.9671 30.1789 19.0602L31.8472 14.3365C31.9994 13.9055 31.84 13.4262 31.46 13.1721L27.179 10.3107C26.357 9.7612 26.746 8.4793 27.7347 8.4793H33.2085C33.6324 8.4793 34.0102 8.21202 34.1514 7.81231L35.9013 2.85735Z" fill="#FBD77C"/>
<path d="M61.2622 2.98077C61.5691 2.07556 62.8494 2.07556 63.1563 2.98077L64.7904 7.80039C64.928 8.20624 65.3089 8.4793 65.7374 8.4793H70.9318C71.9108 8.4793 72.3067 9.74056 71.5032 10.3L67.3751 13.1743C67.0096 13.4287 66.8565 13.8942 66.9995 14.316L68.5934 19.0172C68.9032 19.931 67.8668 20.7103 67.0749 20.1589L62.7806 17.1689C62.4372 16.9298 61.9812 16.9298 61.6378 17.1689L57.3436 20.1589C56.5516 20.7103 55.5153 19.931 55.8251 19.0172L57.419 14.316C57.562 13.8942 57.4089 13.4287 57.0434 13.1743L52.9152 10.3C52.1118 9.74056 52.5077 8.4793 53.4867 8.4793H58.6811C59.1096 8.4793 59.4905 8.20624 59.6281 7.80039L61.2622 2.98077Z" fill="#FBD77C"/>
<path d="M86.6318 2.85735C86.9459 1.96804 88.2036 1.96804 88.5176 2.85735L90.2676 7.81231C90.4088 8.21202 90.7866 8.4793 91.2105 8.4793H96.6842C97.673 8.4793 98.062 9.7612 97.24 10.3107L92.959 13.1721C92.579 13.4262 92.4196 13.9055 92.5718 14.3365L94.2401 19.0602C94.5604 19.9671 93.541 20.7591 92.7414 20.2246L88.1304 17.1425C87.7941 16.9177 87.3554 16.9177 87.019 17.1425L82.408 20.2246C81.6084 20.7591 80.5891 19.9671 80.9094 19.0602L82.5777 14.3365C82.7299 13.9055 82.5705 13.4262 82.1905 13.1721L77.9095 10.3107C77.0875 9.7612 77.4764 8.4793 78.4652 8.4793H83.9389C84.3628 8.4793 84.7407 8.21202 84.8818 7.81231L86.6318 2.85735Z" fill="#FBD77C"/>
<path d="M111.467 3.11455C111.766 2.19324 113.07 2.19324 113.369 3.11455L114.888 7.78831C115.021 8.20034 115.405 8.4793 115.839 8.4793H120.753C121.722 8.4793 122.124 9.71891 121.341 10.2883L117.365 13.1769C117.015 13.4315 116.868 13.8829 117.002 14.2949L118.52 18.9687C118.82 19.89 117.765 20.6561 116.981 20.0867L113.006 17.1981C112.655 16.9435 112.181 16.9435 111.83 17.1981L107.854 20.0867C107.071 20.6561 106.016 19.89 106.316 18.9687L107.834 14.2949C107.968 13.8829 107.821 13.4315 107.471 13.1769L103.495 10.2883C102.711 9.71891 103.114 8.4793 104.083 8.4793H108.997C109.43 8.4793 109.814 8.20034 109.948 7.78831L111.467 3.11455Z" fill="#FBD77C"/>
</svg>
