<svg width="1440" height="170" viewBox="0 0 1440 170" fill="none" xmlns="http://www.w3.org/2000/svg">
<path d="M911.373 11.0494C979.745 6.64938 1067.18 11.7534 1139.78 20.3774C1211.18 29.0014 1354.28 61.7374 1443.83 83.2094C1673.14 139.881 1848.31 161.529 2026.5 170.681C2097.89 174.377 2173.83 176.841 2339.31 166.281C2504.8 155.721 2660.6 121.225 2660.6 121.225V-0.390625H-365V52.9374C-365 52.9374 -147.179 110.313 114.207 106.617C232.799 105.385 394.955 94.8254 519.597 67.1934C583.733 52.9374 677.517 35.1614 760.713 24.6014C843.001 13.5134 880.212 12.8094 911.373 11.0494Z" fill="white"/>
</svg>
